<svg width="440" height="956" viewBox="0 0 440 956" fill="none" xmlns="http://www.w3.org/2000/svg">
<g clip-path="url(#clip0_474_14724)">
<rect width="440" height="956" fill="white"/>
<rect width="440" height="956" fill="url(#paint0_linear_474_14724)"/>
<rect x="49" y="139" width="342" height="132" rx="10" fill="white" fill-opacity="0.02"/>
<rect x="49.5" y="139.5" width="341" height="131" rx="9.5" stroke="white" stroke-opacity="0.1"/>
<path d="M159.745 188.52C159.836 187.837 159.836 187.336 159.836 186.516C159.836 180.64 157.058 174.764 148.996 174.764C141.389 174.764 137.608 180.048 137.608 187.472C137.608 193.667 140.979 199.452 148.768 199.452C156.147 199.452 158.743 194.714 159.563 191.845H153.049C152.412 193.257 151.637 194.35 148.904 194.35C145.67 194.35 144.167 191.481 144.167 188.52H159.745ZM144.304 184.512C144.577 181.597 145.853 179.456 148.95 179.456C152.138 179.456 153.232 181.779 153.277 184.512H144.304ZM163.602 198.905H182.687L183.461 193.758H171.209L182.641 180.412V175.311H164.149V180.458H175.263L163.602 193.986V198.905ZM185.971 175.311L194.579 199.634C193.669 202.23 192.484 203.05 190.07 203.05C189.524 203.05 188.84 203.004 188.385 202.959V208.197C189.524 208.333 190.845 208.379 191.437 208.379C197.085 208.379 198.998 206.375 201.23 199.588L209.156 175.311H202.642C199.863 185.24 198.451 190.524 197.95 192.893H197.904C197.54 190.706 195.399 183.464 192.985 175.311H185.971ZM227.039 191.298C226.447 193.075 225.263 194.396 222.986 194.396C220.161 194.396 218.34 192.118 218.34 187.062C218.34 182.508 220.025 179.911 223.031 179.911C225.582 179.911 226.675 181.232 227.085 183.145H233.416C233.325 180.503 231.093 174.764 223.167 174.764C215.972 174.764 211.735 180.321 211.735 187.29C211.735 194.396 215.516 199.452 222.848 199.452C229.864 199.452 232.641 195.215 233.416 191.298H227.039ZM249.218 174.764C241.748 174.764 237.331 179.911 237.331 187.199C237.331 194.213 241.612 199.452 248.9 199.452C256.37 199.452 260.651 194.213 260.651 187.062C260.651 179.684 256.143 174.764 249.218 174.764ZM248.946 179.911C252.225 179.911 254.047 182.234 254.047 187.153C254.047 191.663 252.271 194.35 249.037 194.35C245.894 194.35 243.935 191.663 243.935 187.108C243.935 182.143 245.939 179.911 248.946 179.911ZM286.8 175.311H280.286V187.882C280.286 192.528 279.057 194.122 276.096 194.122C273.272 194.122 272.452 191.982 272.452 189.385V175.311H265.938V190.706C265.938 196.536 268.991 199.452 273.774 199.452C276.825 199.452 278.874 198.541 280.286 196.172C280.332 196.992 280.377 198.267 280.469 198.905H286.845C286.8 196.81 286.8 194.305 286.8 192.073V175.311ZM293.585 198.905H300.144V188.611C300.144 182.143 302.968 180.868 307.705 181.004V174.764C303.696 174.81 301.191 176.768 300.144 179.456C300.144 178.18 300.052 175.857 299.961 175.311H293.539C293.585 177.315 293.585 179.365 293.585 181.733V198.905ZM310.827 191.799C311.374 195.99 314.29 199.452 321.485 199.452C328.636 199.452 331.643 195.899 331.643 191.982C331.643 188.52 330.504 185.832 322.624 184.011C318.798 183.1 318.07 182.553 318.07 181.369C318.07 180.321 318.798 179.365 320.94 179.365C323.991 179.365 324.583 181.004 324.811 181.87H331.006C330.823 178.681 328.363 174.764 321.213 174.764C314.107 174.764 311.692 178.454 311.692 181.915C311.692 185.24 312.923 187.609 320.62 189.522C323.991 190.342 324.993 190.934 324.993 192.437C324.993 193.895 324.128 194.76 321.713 194.76C319.3 194.76 317.75 193.712 317.25 191.799H310.827ZM357.767 188.52C357.857 187.837 357.857 187.336 357.857 186.516C357.857 180.64 355.08 174.764 347.018 174.764C339.41 174.764 335.63 180.048 335.63 187.472C335.63 193.667 339.001 199.452 346.79 199.452C354.168 199.452 356.764 194.714 357.584 191.845H351.07C350.433 193.257 349.659 194.35 346.926 194.35C343.692 194.35 342.189 191.481 342.189 188.52H357.767ZM342.325 184.512C342.599 181.597 343.875 179.456 346.971 179.456C350.159 179.456 351.253 181.779 351.298 184.512H342.325Z" fill="white"/>
<path d="M125.749 210.794H93.8887V202.192L113.243 179.217H101.821C100.429 179.217 99.1449 178.468 98.4599 177.256L94.7375 170.672H125.523V177.042C125.523 178.263 125.089 179.445 124.298 180.375L105.716 202.249H120.601C123.444 202.249 125.749 204.554 125.749 207.397V210.794Z" fill="#E8F54A"/>
<path d="M86.5966 210.845L113.35 179.252L101.372 202.679L102.008 210.735L86.5966 210.845Z" fill="#E8F54A"/>
<path d="M70.1007 174.517C70.1007 172.383 71.8313 170.654 73.965 170.656L89.4804 170.668C91.4071 170.67 93.1715 171.747 94.0534 173.46L97.0173 179.217L73.9662 179.243C71.8321 179.245 70.1007 177.516 70.1007 175.382V174.517Z" fill="white"/>
<path d="M70.1007 190.519C70.1007 188.084 72.0744 186.111 74.509 186.111H104.366L96.7748 194.927H74.509C72.0744 194.927 70.1007 192.953 70.1007 190.519Z" fill="white"/>
<path d="M78.9173 186.111V210.337L76.4435 210.302C72.9259 210.251 70.1007 207.385 70.1007 203.867L70.1007 191.259C70.1007 188.416 72.4056 186.111 75.2489 186.111H78.9173Z" fill="white"/>
<path d="M70.1007 201.978H91.2538L83.675 210.795H75.2489C72.4056 210.795 70.1007 208.49 70.1007 205.647V201.978Z" fill="white"/>
<path d="M74.332 240.705V229.419H70.247V227.405H80.621V229.419H76.536V240.705H74.332ZM82.07 240.705V227.405H84.198V240.705H82.07ZM88.511 240.705V235.841H90.639V240.705H88.511ZM88.511 235.841C88.511 235.081 88.4224 234.499 88.245 234.093C88.0677 233.675 87.8207 233.384 87.504 233.219C87.2 233.055 86.8454 232.972 86.44 232.972C85.718 232.96 85.1607 233.194 84.768 233.675C84.388 234.157 84.198 234.847 84.198 235.746H83.381C83.381 234.746 83.5267 233.891 83.818 233.181C84.122 232.459 84.5464 231.915 85.091 231.547C85.6357 231.167 86.2817 230.977 87.029 230.977C87.7764 230.977 88.4224 231.129 88.967 231.433C89.5117 231.737 89.9234 232.212 90.202 232.858C90.4934 233.492 90.639 234.321 90.639 235.347V235.841H88.511ZM97.0312 240.933C96.1065 240.933 95.2832 240.724 94.5612 240.306C93.8519 239.876 93.2882 239.287 92.8702 238.539C92.4649 237.792 92.2622 236.931 92.2622 235.955C92.2622 234.98 92.4712 234.119 92.8892 233.371C93.3072 232.624 93.8772 232.041 94.5992 231.623C95.3339 231.193 96.1699 230.977 97.1072 230.977C97.9559 230.977 98.7222 231.199 99.4062 231.642C100.09 232.073 100.629 232.7 101.021 233.523C101.427 234.347 101.629 235.328 101.629 236.468H94.1622L94.4472 236.202C94.4472 236.785 94.5739 237.292 94.8272 237.722C95.0805 238.14 95.4162 238.463 95.8342 238.691C96.2522 238.919 96.7145 239.033 97.2212 239.033C97.8039 239.033 98.2852 238.907 98.6652 238.653C99.0452 238.387 99.3429 238.045 99.5582 237.627L101.439 238.425C101.173 238.932 100.831 239.375 100.413 239.755C100.008 240.135 99.5202 240.427 98.9502 240.629C98.3929 240.832 97.7532 240.933 97.0312 240.933ZM94.5802 235.1L94.2762 234.834H99.6342L99.3492 235.1C99.3492 234.581 99.2352 234.157 99.0072 233.827C98.7792 233.485 98.4879 233.232 98.1332 233.067C97.7912 232.89 97.4302 232.801 97.0502 232.801C96.6702 232.801 96.2902 232.89 95.9102 233.067C95.5302 233.232 95.2135 233.485 94.9602 233.827C94.7069 234.157 94.5802 234.581 94.5802 235.1ZM108.241 240.705V227.405H112.63C113.542 227.405 114.327 227.545 114.986 227.823C115.657 228.102 116.177 228.52 116.544 229.077C116.911 229.622 117.095 230.306 117.095 231.129C117.095 231.699 116.956 232.212 116.677 232.668C116.411 233.124 116.031 233.504 115.537 233.808C116.183 234.125 116.677 234.549 117.019 235.081C117.361 235.613 117.532 236.247 117.532 236.981C117.532 237.767 117.355 238.438 117 238.995C116.645 239.553 116.145 239.977 115.499 240.268C114.853 240.56 114.087 240.705 113.2 240.705H108.241ZM110.407 238.729H113.029C113.726 238.729 114.277 238.558 114.682 238.216C115.087 237.874 115.29 237.412 115.29 236.829C115.29 236.196 115.062 235.702 114.606 235.347C114.163 234.993 113.536 234.815 112.725 234.815H110.407V238.729ZM110.407 232.991H112.82C113.453 232.991 113.947 232.827 114.302 232.497C114.669 232.155 114.853 231.687 114.853 231.091C114.853 230.483 114.644 230.021 114.226 229.704C113.821 229.375 113.251 229.21 112.516 229.21H110.407V232.991ZM123.713 240.933C122.788 240.933 121.965 240.724 121.243 240.306C120.534 239.876 119.97 239.287 119.552 238.539C119.147 237.792 118.944 236.931 118.944 235.955C118.944 234.98 119.153 234.119 119.571 233.371C119.989 232.624 120.559 232.041 121.281 231.623C122.016 231.193 122.852 230.977 123.789 230.977C124.638 230.977 125.404 231.199 126.088 231.642C126.772 232.073 127.31 232.7 127.703 233.523C128.108 234.347 128.311 235.328 128.311 236.468H120.844L121.129 236.202C121.129 236.785 121.256 237.292 121.509 237.722C121.762 238.14 122.098 238.463 122.516 238.691C122.934 238.919 123.396 239.033 123.903 239.033C124.486 239.033 124.967 238.907 125.347 238.653C125.727 238.387 126.025 238.045 126.24 237.627L128.121 238.425C127.855 238.932 127.513 239.375 127.095 239.755C126.69 240.135 126.202 240.427 125.632 240.629C125.075 240.832 124.435 240.933 123.713 240.933ZM121.262 235.1L120.958 234.834H126.316L126.031 235.1C126.031 234.581 125.917 234.157 125.689 233.827C125.461 233.485 125.17 233.232 124.815 233.067C124.473 232.89 124.112 232.801 123.732 232.801C123.352 232.801 122.972 232.89 122.592 233.067C122.212 233.232 121.895 233.485 121.642 233.827C121.389 234.157 121.262 234.581 121.262 235.1ZM133.399 240.933C132.765 240.933 132.183 240.838 131.651 240.648C131.119 240.458 130.663 240.192 130.283 239.85C129.903 239.496 129.611 239.084 129.409 238.615L131.252 237.798C131.442 238.153 131.72 238.451 132.088 238.691C132.468 238.932 132.886 239.052 133.342 239.052C133.836 239.052 134.228 238.97 134.52 238.805C134.824 238.628 134.976 238.387 134.976 238.083C134.976 237.792 134.862 237.57 134.634 237.418C134.406 237.254 134.083 237.121 133.665 237.019L132.772 236.772C131.872 236.544 131.169 236.183 130.663 235.689C130.156 235.183 129.903 234.606 129.903 233.96C129.903 233.01 130.207 232.276 130.815 231.756C131.435 231.237 132.322 230.977 133.475 230.977C134.057 230.977 134.589 231.066 135.071 231.243C135.565 231.408 135.989 231.649 136.344 231.965C136.698 232.269 136.945 232.63 137.085 233.048L135.318 233.846C135.191 233.53 134.95 233.289 134.596 233.124C134.241 232.947 133.848 232.858 133.418 232.858C132.987 232.858 132.651 232.953 132.411 233.143C132.17 233.321 132.05 233.574 132.05 233.903C132.05 234.093 132.157 234.271 132.373 234.435C132.588 234.587 132.898 234.714 133.304 234.815L134.425 235.081C135.045 235.233 135.552 235.474 135.945 235.803C136.337 236.12 136.629 236.481 136.819 236.886C137.009 237.279 137.104 237.678 137.104 238.083C137.104 238.653 136.939 239.154 136.61 239.584C136.293 240.015 135.856 240.351 135.299 240.591C134.741 240.819 134.108 240.933 133.399 240.933ZM142.572 240.933C141.572 240.933 140.805 240.686 140.273 240.192C139.754 239.686 139.494 238.964 139.494 238.026V228.241H141.603V237.627C141.603 238.071 141.705 238.406 141.907 238.634C142.123 238.862 142.433 238.976 142.838 238.976C142.965 238.976 143.104 238.951 143.256 238.9C143.408 238.85 143.579 238.755 143.769 238.615L144.548 240.23C144.219 240.458 143.89 240.629 143.56 240.743C143.231 240.87 142.902 240.933 142.572 240.933ZM137.917 233.029V231.205H144.168V233.029H137.917ZM157.141 240.933C155.824 240.933 154.659 240.642 153.645 240.059C152.632 239.477 151.834 238.666 151.251 237.627C150.681 236.589 150.396 235.398 150.396 234.055C150.396 232.713 150.681 231.528 151.251 230.502C151.834 229.464 152.626 228.653 153.626 228.07C154.627 227.475 155.78 227.177 157.084 227.177C158.402 227.177 159.561 227.475 160.561 228.07C161.575 228.653 162.36 229.464 162.917 230.502C163.487 231.528 163.772 232.713 163.772 234.055C163.772 235.398 163.487 236.589 162.917 237.627C162.36 238.666 161.581 239.477 160.58 240.059C159.592 240.642 158.446 240.933 157.141 240.933ZM157.141 238.919C158.003 238.919 158.763 238.71 159.421 238.292C160.08 237.874 160.593 237.304 160.96 236.582C161.34 235.848 161.53 235.005 161.53 234.055C161.53 233.118 161.34 232.282 160.96 231.547C160.58 230.813 160.055 230.243 159.383 229.837C158.725 229.419 157.958 229.21 157.084 229.21C156.223 229.21 155.457 229.419 154.785 229.837C154.127 230.243 153.601 230.813 153.208 231.547C152.828 232.269 152.638 233.105 152.638 234.055C152.638 235.005 152.828 235.848 153.208 236.582C153.601 237.304 154.133 237.874 154.804 238.292C155.488 238.71 156.267 238.919 157.141 238.919ZM165.714 240.705V231.205H167.709L167.842 232.953V240.705H165.714ZM172.155 240.705V235.841H174.283V240.705H172.155ZM172.155 235.841C172.155 235.081 172.066 234.499 171.889 234.093C171.724 233.675 171.484 233.384 171.167 233.219C170.863 233.055 170.502 232.972 170.084 232.972C169.375 232.96 168.824 233.194 168.431 233.675C168.038 234.157 167.842 234.847 167.842 235.746H167.044C167.044 234.746 167.19 233.891 167.481 233.181C167.772 232.459 168.19 231.915 168.735 231.547C169.28 231.167 169.926 230.977 170.673 230.977C171.433 230.977 172.079 231.129 172.611 231.433C173.156 231.737 173.567 232.212 173.846 232.858C174.137 233.492 174.283 234.321 174.283 235.347V235.841H172.155ZM176.439 240.705V227.405H178.567V240.705H176.439ZM181.062 240.705V231.205H183.171V240.705H181.062ZM182.126 229.4C181.784 229.4 181.486 229.28 181.233 229.039C180.992 228.786 180.872 228.488 180.872 228.146C180.872 227.804 180.992 227.513 181.233 227.272C181.486 227.032 181.784 226.911 182.126 226.911C182.468 226.911 182.759 227.032 183 227.272C183.253 227.513 183.38 227.804 183.38 228.146C183.38 228.488 183.253 228.786 183 229.039C182.759 229.28 182.468 229.4 182.126 229.4ZM185.679 240.705V231.205H187.674L187.807 232.953V240.705H185.679ZM192.12 240.705V235.841H194.248V240.705H192.12ZM192.12 235.841C192.12 235.081 192.031 234.499 191.854 234.093C191.689 233.675 191.449 233.384 191.132 233.219C190.828 233.055 190.467 232.972 190.049 232.972C189.34 232.96 188.789 233.194 188.396 233.675C188.003 234.157 187.807 234.847 187.807 235.746H187.009C187.009 234.746 187.155 233.891 187.446 233.181C187.737 232.459 188.155 231.915 188.7 231.547C189.245 231.167 189.891 230.977 190.638 230.977C191.398 230.977 192.044 231.129 192.576 231.433C193.121 231.737 193.532 232.212 193.811 232.858C194.102 233.492 194.248 234.321 194.248 235.347V235.841H192.12ZM200.641 240.933C199.716 240.933 198.893 240.724 198.171 240.306C197.461 239.876 196.898 239.287 196.48 238.539C196.074 237.792 195.872 236.931 195.872 235.955C195.872 234.98 196.081 234.119 196.499 233.371C196.917 232.624 197.487 232.041 198.209 231.623C198.943 231.193 199.779 230.977 200.717 230.977C201.565 230.977 202.332 231.199 203.016 231.642C203.7 232.073 204.238 232.7 204.631 233.523C205.036 234.347 205.239 235.328 205.239 236.468H197.772L198.057 236.202C198.057 236.785 198.183 237.292 198.437 237.722C198.69 238.14 199.026 238.463 199.444 238.691C199.862 238.919 200.324 239.033 200.831 239.033C201.413 239.033 201.895 238.907 202.275 238.653C202.655 238.387 202.952 238.045 203.168 237.627L205.049 238.425C204.783 238.932 204.441 239.375 204.023 239.755C203.617 240.135 203.13 240.427 202.56 240.629C202.002 240.832 201.363 240.933 200.641 240.933ZM198.19 235.1L197.886 234.834H203.244L202.959 235.1C202.959 234.581 202.845 234.157 202.617 233.827C202.389 233.485 202.097 233.232 201.743 233.067C201.401 232.89 201.04 232.801 200.66 232.801C200.28 232.801 199.9 232.89 199.52 233.067C199.14 233.232 198.823 233.485 198.57 233.827C198.316 234.157 198.19 234.581 198.19 235.1ZM211.85 240.705V227.405H214.054V238.691H220.077V240.705H211.85ZM225.764 240.933C224.839 240.933 224.016 240.724 223.294 240.306C222.584 239.876 222.021 239.287 221.603 238.539C221.197 237.792 220.995 236.931 220.995 235.955C220.995 234.98 221.204 234.119 221.622 233.371C222.04 232.624 222.61 232.041 223.332 231.623C224.066 231.193 224.902 230.977 225.84 230.977C226.688 230.977 227.455 231.199 228.139 231.642C228.823 232.073 229.361 232.7 229.754 233.523C230.159 234.347 230.362 235.328 230.362 236.468H222.895L223.18 236.202C223.18 236.785 223.306 237.292 223.56 237.722C223.813 238.14 224.149 238.463 224.567 238.691C224.985 238.919 225.447 239.033 225.954 239.033C226.536 239.033 227.018 238.907 227.398 238.653C227.778 238.387 228.075 238.045 228.291 237.627L230.172 238.425C229.906 238.932 229.564 239.375 229.146 239.755C228.74 240.135 228.253 240.427 227.683 240.629C227.125 240.832 226.486 240.933 225.764 240.933ZM223.313 235.1L223.009 234.834H228.367L228.082 235.1C228.082 234.581 227.968 234.157 227.74 233.827C227.512 233.485 227.22 233.232 226.866 233.067C226.524 232.89 226.163 232.801 225.783 232.801C225.403 232.801 225.023 232.89 224.643 233.067C224.263 233.232 223.946 233.485 223.693 233.827C223.439 234.157 223.313 234.581 223.313 235.1ZM237.786 240.705L237.691 238.919V235.822C237.691 235.176 237.622 234.638 237.482 234.207C237.356 233.764 237.14 233.428 236.836 233.2C236.545 232.96 236.152 232.839 235.658 232.839C235.202 232.839 234.803 232.934 234.461 233.124C234.119 233.314 233.828 233.612 233.587 234.017L231.725 233.333C231.928 232.915 232.194 232.529 232.523 232.174C232.865 231.807 233.29 231.516 233.796 231.3C234.316 231.085 234.936 230.977 235.658 230.977C236.583 230.977 237.356 231.161 237.976 231.528C238.597 231.883 239.053 232.396 239.344 233.067C239.648 233.739 239.8 234.549 239.8 235.499L239.743 240.705H237.786ZM235.05 240.933C233.91 240.933 233.024 240.68 232.39 240.173C231.77 239.667 231.459 238.951 231.459 238.026C231.459 237.038 231.789 236.285 232.447 235.765C233.119 235.246 234.05 234.986 235.24 234.986H237.786V236.62H235.924C235.076 236.62 234.48 236.741 234.138 236.981C233.796 237.209 233.625 237.539 233.625 237.969C233.625 238.337 233.771 238.628 234.062 238.843C234.366 239.046 234.784 239.147 235.316 239.147C235.798 239.147 236.216 239.04 236.57 238.824C236.925 238.609 237.197 238.324 237.387 237.969C237.59 237.615 237.691 237.216 237.691 236.772H238.318C238.318 238.064 238.059 239.084 237.539 239.831C237.02 240.566 236.19 240.933 235.05 240.933ZM243.361 235.651C243.361 234.625 243.558 233.783 243.95 233.124C244.343 232.466 244.85 231.978 245.47 231.661C246.104 231.332 246.762 231.167 247.446 231.167V233.2C246.864 233.2 246.313 233.283 245.793 233.447C245.287 233.599 244.875 233.853 244.558 234.207C244.242 234.562 244.083 235.031 244.083 235.613L243.361 235.651ZM241.955 240.705V231.205H244.083V240.705H241.955ZM248.858 240.705V231.205H250.853L250.986 232.953V240.705H248.858ZM255.299 240.705V235.841H257.427V240.705H255.299ZM255.299 235.841C255.299 235.081 255.21 234.499 255.033 234.093C254.868 233.675 254.627 233.384 254.311 233.219C254.007 233.055 253.646 232.972 253.228 232.972C252.518 232.96 251.967 233.194 251.575 233.675C251.182 234.157 250.986 234.847 250.986 235.746H250.188C250.188 234.746 250.333 233.891 250.625 233.181C250.916 232.459 251.334 231.915 251.879 231.547C252.423 231.167 253.069 230.977 253.817 230.977C254.577 230.977 255.223 231.129 255.755 231.433C256.299 231.737 256.711 232.212 256.99 232.858C257.281 233.492 257.427 234.321 257.427 235.347V235.841H255.299ZM259.715 240.705V231.205H261.824V240.705H259.715ZM260.779 229.4C260.437 229.4 260.14 229.28 259.886 229.039C259.646 228.786 259.525 228.488 259.525 228.146C259.525 227.804 259.646 227.513 259.886 227.272C260.14 227.032 260.437 226.911 260.779 226.911C261.121 226.911 261.413 227.032 261.653 227.272C261.907 227.513 262.033 227.804 262.033 228.146C262.033 228.488 261.907 228.786 261.653 229.039C261.413 229.28 261.121 229.4 260.779 229.4ZM264.332 240.705V231.205H266.327L266.46 232.953V240.705H264.332ZM270.773 240.705V235.841H272.901V240.705H270.773ZM270.773 235.841C270.773 235.081 270.685 234.499 270.507 234.093C270.343 233.675 270.102 233.384 269.785 233.219C269.481 233.055 269.12 232.972 268.702 232.972C267.993 232.96 267.442 233.194 267.049 233.675C266.657 234.157 266.46 234.847 266.46 235.746H265.662C265.662 234.746 265.808 233.891 266.099 233.181C266.391 232.459 266.809 231.915 267.353 231.547C267.898 231.167 268.544 230.977 269.291 230.977C270.051 230.977 270.697 231.129 271.229 231.433C271.774 231.737 272.186 232.212 272.464 232.858C272.756 233.492 272.901 234.321 272.901 235.347V235.841H270.773ZM279.142 244.752C278.471 244.752 277.863 244.695 277.318 244.581C276.786 244.467 276.336 244.334 275.969 244.182C275.602 244.03 275.317 243.885 275.114 243.745L275.931 242.035C276.108 242.124 276.343 242.232 276.634 242.358C276.938 242.498 277.293 242.618 277.698 242.719C278.103 242.821 278.559 242.871 279.066 242.871C279.611 242.871 280.098 242.757 280.529 242.529C280.96 242.314 281.295 241.978 281.536 241.522C281.777 241.066 281.897 240.484 281.897 239.774V231.205H284.025V239.717C284.025 240.794 283.822 241.706 283.417 242.453C283.012 243.213 282.442 243.783 281.707 244.163C280.972 244.556 280.117 244.752 279.142 244.752ZM278.819 240.515C277.958 240.515 277.204 240.319 276.558 239.926C275.925 239.534 275.424 238.989 275.057 238.292C274.702 237.583 274.525 236.766 274.525 235.841C274.525 234.853 274.702 233.998 275.057 233.276C275.424 232.554 275.925 231.991 276.558 231.585C277.204 231.18 277.958 230.977 278.819 230.977C279.592 230.977 280.263 231.18 280.833 231.585C281.416 231.991 281.865 232.561 282.182 233.295C282.499 234.017 282.657 234.872 282.657 235.86C282.657 236.798 282.499 237.615 282.182 238.311C281.865 239.008 281.416 239.553 280.833 239.945C280.263 240.325 279.592 240.515 278.819 240.515ZM279.408 238.71C279.889 238.71 280.307 238.584 280.662 238.33C281.029 238.077 281.314 237.735 281.517 237.304C281.72 236.861 281.821 236.354 281.821 235.784C281.821 235.202 281.72 234.695 281.517 234.264C281.314 233.821 281.029 233.479 280.662 233.238C280.295 232.985 279.87 232.858 279.389 232.858C278.882 232.858 278.433 232.985 278.04 233.238C277.66 233.479 277.356 233.821 277.128 234.264C276.913 234.695 276.805 235.202 276.805 235.784C276.805 236.354 276.913 236.861 277.128 237.304C277.356 237.735 277.666 238.077 278.059 238.33C278.452 238.584 278.901 238.71 279.408 238.71ZM291.357 240.705V227.405H296.05C296.962 227.405 297.767 227.589 298.463 227.956C299.16 228.324 299.705 228.837 300.097 229.495C300.49 230.141 300.686 230.895 300.686 231.756C300.686 232.592 300.503 233.34 300.135 233.998C299.768 234.657 299.255 235.176 298.596 235.556C297.95 235.924 297.197 236.107 296.335 236.107H293.561V240.705H291.357ZM293.561 234.074H296.297C296.931 234.074 297.45 233.859 297.855 233.428C298.261 232.998 298.463 232.44 298.463 231.756C298.463 231.06 298.235 230.496 297.779 230.065C297.323 229.635 296.734 229.419 296.012 229.419H293.561V234.074ZM302.24 240.705V227.405H304.368V240.705H302.24ZM312.525 240.705L312.43 238.919V235.822C312.43 235.176 312.36 234.638 312.221 234.207C312.094 233.764 311.879 233.428 311.575 233.2C311.283 232.96 310.891 232.839 310.397 232.839C309.941 232.839 309.542 232.934 309.2 233.124C308.858 233.314 308.566 233.612 308.326 234.017L306.464 233.333C306.666 232.915 306.932 232.529 307.262 232.174C307.604 231.807 308.028 231.516 308.535 231.3C309.054 231.085 309.675 230.977 310.397 230.977C311.321 230.977 312.094 231.161 312.715 231.528C313.335 231.883 313.791 232.396 314.083 233.067C314.387 233.739 314.539 234.549 314.539 235.499L314.482 240.705H312.525ZM309.789 240.933C308.649 240.933 307.762 240.68 307.129 240.173C306.508 239.667 306.198 238.951 306.198 238.026C306.198 237.038 306.527 236.285 307.186 235.765C307.857 235.246 308.788 234.986 309.979 234.986H312.525V236.62H310.663C309.814 236.62 309.219 236.741 308.877 236.981C308.535 237.209 308.364 237.539 308.364 237.969C308.364 238.337 308.509 238.628 308.801 238.843C309.105 239.046 309.523 239.147 310.055 239.147C310.536 239.147 310.954 239.04 311.309 238.824C311.663 238.609 311.936 238.324 312.126 237.969C312.328 237.615 312.43 237.216 312.43 236.772H313.057C313.057 238.064 312.797 239.084 312.278 239.831C311.758 240.566 310.929 240.933 309.789 240.933ZM320.475 240.933C319.474 240.933 318.708 240.686 318.176 240.192C317.656 239.686 317.397 238.964 317.397 238.026V228.241H319.506V237.627C319.506 238.071 319.607 238.406 319.81 238.634C320.025 238.862 320.335 238.976 320.741 238.976C320.867 238.976 321.007 238.951 321.159 238.9C321.311 238.85 321.482 238.755 321.672 238.615L322.451 240.23C322.121 240.458 321.792 240.629 321.463 240.743C321.133 240.87 320.804 240.933 320.475 240.933ZM315.82 233.029V231.205H322.071V233.029H315.82ZM325.103 240.705V230.198C325.103 229.198 325.35 228.431 325.844 227.899C326.35 227.355 327.11 227.082 328.124 227.082C328.453 227.082 328.801 227.139 329.169 227.253C329.549 227.355 329.91 227.494 330.252 227.671L329.473 229.248C329.232 229.134 329.017 229.052 328.827 229.001C328.649 228.951 328.491 228.925 328.352 228.925C327.972 228.925 327.687 229.052 327.497 229.305C327.319 229.546 327.231 229.945 327.231 230.502V240.705H325.103ZM323.469 232.953V231.205H329.72V232.953H323.469ZM335.648 240.933C334.698 240.933 333.849 240.724 333.102 240.306C332.367 239.876 331.791 239.287 331.373 238.539C330.955 237.792 330.746 236.931 330.746 235.955C330.746 234.98 330.948 234.119 331.354 233.371C331.772 232.624 332.348 232.041 333.083 231.623C333.817 231.193 334.66 230.977 335.61 230.977C336.56 230.977 337.402 231.193 338.137 231.623C338.871 232.041 339.441 232.624 339.847 233.371C340.265 234.119 340.474 234.98 340.474 235.955C340.474 236.931 340.271 237.792 339.866 238.539C339.46 239.287 338.89 239.876 338.156 240.306C337.421 240.724 336.585 240.933 335.648 240.933ZM335.648 238.976C336.167 238.976 336.629 238.85 337.035 238.596C337.44 238.33 337.757 237.976 337.985 237.532C338.213 237.076 338.327 236.551 338.327 235.955C338.327 235.36 338.206 234.841 337.966 234.397C337.738 233.941 337.421 233.587 337.016 233.333C336.61 233.067 336.142 232.934 335.61 232.934C335.078 232.934 334.609 233.061 334.204 233.314C333.798 233.568 333.482 233.922 333.254 234.378C333.026 234.834 332.912 235.36 332.912 235.955C332.912 236.551 333.026 237.076 333.254 237.532C333.494 237.976 333.817 238.33 334.223 238.596C334.641 238.85 335.116 238.976 335.648 238.976ZM343.724 235.651C343.724 234.625 343.92 233.783 344.313 233.124C344.705 232.466 345.212 231.978 345.833 231.661C346.466 231.332 347.125 231.167 347.809 231.167V233.2C347.226 233.2 346.675 233.283 346.156 233.447C345.649 233.599 345.237 233.853 344.921 234.207C344.604 234.562 344.446 235.031 344.446 235.613L343.724 235.651ZM342.318 240.705V231.205H344.446V240.705H342.318ZM349.22 240.705V231.205H351.215L351.31 232.478C351.601 231.984 351.975 231.611 352.431 231.357C352.887 231.104 353.406 230.977 353.989 230.977C354.749 230.977 355.395 231.148 355.927 231.49C356.459 231.832 356.845 232.352 357.086 233.048C357.365 232.377 357.757 231.864 358.264 231.509C358.771 231.155 359.366 230.977 360.05 230.977C361.152 230.977 362.001 231.332 362.596 232.041C363.191 232.738 363.483 233.815 363.47 235.271V240.705H361.361V235.841C361.361 235.081 361.279 234.499 361.114 234.093C360.949 233.675 360.728 233.384 360.449 233.219C360.17 233.055 359.847 232.972 359.48 232.972C358.821 232.96 358.308 233.194 357.941 233.675C357.586 234.157 357.409 234.847 357.409 235.746V240.705H355.281V235.841C355.281 235.081 355.199 234.499 355.034 234.093C354.882 233.675 354.667 233.384 354.388 233.219C354.109 233.055 353.786 232.972 353.419 232.972C352.76 232.96 352.247 233.194 351.88 233.675C351.525 234.157 351.348 234.847 351.348 235.746V240.705H349.22Z" fill="#E8F54A"/>
<g opacity="0.5" filter="url(#filter0_d_474_14724)">
<circle opacity="0.1" cx="114" cy="114" r="114" transform="matrix(0.5 0.866025 0.866025 -0.5 -65 45)" fill="url(#paint1_linear_474_14724)"/>
<circle opacity="0.1" cx="114" cy="114" r="114" transform="matrix(0.5 0.866025 0.866025 -0.5 239 51)" fill="url(#paint2_linear_474_14724)"/>
<circle opacity="0.1" cx="114" cy="114" r="114" transform="matrix(0.5 0.866025 0.866025 -0.5 78 51)" fill="url(#paint3_linear_474_14724)"/>
</g>
<g opacity="0.5">
<circle opacity="0.1" cx="372.726" cy="316.727" r="114" transform="rotate(120 372.726 316.727)" fill="url(#paint4_linear_474_14724)"/>
<circle opacity="0.1" cx="68.7262" cy="322.727" r="114" transform="rotate(120 68.7262 322.727)" fill="url(#paint5_linear_474_14724)"/>
<circle opacity="0.1" cx="229.726" cy="322.727" r="114" transform="rotate(120 229.726 322.727)" fill="url(#paint6_linear_474_14724)"/>
</g>
</g>
<defs>
<filter id="filter0_d_474_14724" x="-27.2921" y="-27.2921" width="540.038" height="242.038" filterUnits="userSpaceOnUse" color-interpolation-filters="sRGB">
<feFlood flood-opacity="0" result="BackgroundImageFix"/>
<feColorMatrix in="SourceAlpha" type="matrix" values="0 0 0 0 0 0 0 0 0 0 0 0 0 0 0 0 0 0 127 0" result="hardAlpha"/>
<feOffset dy="4"/>
<feGaussianBlur stdDeviation="2"/>
<feComposite in2="hardAlpha" operator="out"/>
<feColorMatrix type="matrix" values="0 0 0 0 0 0 0 0 0 0 0 0 0 0 0 0 0 0 0.25 0"/>
<feBlend mode="normal" in2="BackgroundImageFix" result="effect1_dropShadow_474_14724"/>
<feBlend mode="normal" in="SourceGraphic" in2="effect1_dropShadow_474_14724" result="shape"/>
</filter>
<linearGradient id="paint0_linear_474_14724" x1="0" y1="0" x2="440" y2="956" gradientUnits="userSpaceOnUse">
<stop offset="0.0001" stop-color="#156A76"/>
</linearGradient>
<linearGradient id="paint1_linear_474_14724" x1="114" y1="0" x2="114" y2="228" gradientUnits="userSpaceOnUse">
<stop stop-color="white" stop-opacity="0"/>
<stop offset="1" stop-color="white"/>
</linearGradient>
<linearGradient id="paint2_linear_474_14724" x1="114" y1="0" x2="114" y2="228" gradientUnits="userSpaceOnUse">
<stop stop-color="white" stop-opacity="0"/>
<stop offset="1" stop-color="white"/>
</linearGradient>
<linearGradient id="paint3_linear_474_14724" x1="114" y1="0" x2="114" y2="228" gradientUnits="userSpaceOnUse">
<stop stop-color="white" stop-opacity="0"/>
<stop offset="1" stop-color="white"/>
</linearGradient>
<linearGradient id="paint4_linear_474_14724" x1="372.726" y1="202.727" x2="372.726" y2="430.727" gradientUnits="userSpaceOnUse">
<stop stop-color="white" stop-opacity="0"/>
<stop offset="1" stop-color="white"/>
</linearGradient>
<linearGradient id="paint5_linear_474_14724" x1="68.7262" y1="208.727" x2="68.7262" y2="436.727" gradientUnits="userSpaceOnUse">
<stop stop-color="white" stop-opacity="0"/>
<stop offset="1" stop-color="white"/>
</linearGradient>
<linearGradient id="paint6_linear_474_14724" x1="229.726" y1="208.727" x2="229.726" y2="436.727" gradientUnits="userSpaceOnUse">
<stop stop-color="white" stop-opacity="0"/>
<stop offset="1" stop-color="white"/>
</linearGradient>
<clipPath id="clip0_474_14724">
<rect width="440" height="956" fill="white"/>
</clipPath>
</defs>
</svg>
