<svg width="25" height="24" viewBox="0 0 25 24" fill="none" xmlns="http://www.w3.org/2000/svg">
<path fill-rule="evenodd" clip-rule="evenodd" d="M10.105 3.60985C8.55278 4.45845 7.5 6.10628 7.5 8C7.5 9.0141 7.8019 9.95769 8.32074 10.7458C6.33291 10.6522 4.75 9.01097 4.75 7C4.75 4.92893 6.42893 3.25 8.5 3.25C9.0743 3.25 9.61844 3.3791 10.105 3.60985ZM9.02478 12.25C6.41038 13.0115 4.5 15.4255 4.5 18.2857C4.5 18.8057 4.60685 19.3007 4.79978 19.75H4.21429C2.8533 19.75 1.75 18.6467 1.75 17.2857C1.75 14.5046 4.00457 12.25 6.78571 12.25H9.02478ZM12.5 4.25C10.4289 4.25 8.75 5.92893 8.75 8C8.75 10.0711 10.4289 11.75 12.5 11.75C14.5711 11.75 16.25 10.0711 16.25 8C16.25 5.92893 14.5711 4.25 12.5 4.25ZM10.7857 13.25C8.00457 13.25 5.75 15.5046 5.75 18.2857C5.75 19.6467 6.8533 20.75 8.21429 20.75H16.7857C18.1467 20.75 19.25 19.6467 19.25 18.2857C19.25 15.5046 16.9954 13.25 14.2143 13.25H10.7857ZM17.5 8C17.5 9.0141 17.1981 9.95769 16.6793 10.7458C18.6671 10.6522 20.25 9.01097 20.25 7C20.25 4.92893 18.5711 3.25 16.5 3.25C15.9257 3.25 15.3816 3.3791 14.895 3.60985C16.4472 4.45845 17.5 6.10628 17.5 8ZM20.5 18.2857C20.5 18.8057 20.3932 19.3007 20.2002 19.75H20.7857C22.1467 19.75 23.25 18.6467 23.25 17.2857C23.25 14.5046 20.9954 12.25 18.2143 12.25H15.9752C18.5896 13.0115 20.5 15.4255 20.5 18.2857Z" fill="#004852"/>
</svg>
