<svg width="25" height="24" viewBox="0 0 25 24" fill="none" xmlns="http://www.w3.org/2000/svg">
<path d="M15.5 17.625C15.4264 19.4769 13.8831 21.0494 11.8156 20.9988C11.3346 20.987 10.7401 20.8194 9.55112 20.484C6.68961 19.6768 4.20555 18.3203 3.60956 15.2815C3.5 14.723 3.5 14.0944 3.5 12.8373V11.1627C3.5 9.90561 3.5 9.27705 3.60956 8.71846C4.20555 5.67965 6.68961 4.32316 9.55112 3.51603C10.7401 3.18064 11.3346 3.01295 11.8156 3.00119C13.8831 2.95061 15.4264 4.52307 15.5 6.37501" stroke="#141B34" stroke-width="1.5" stroke-linecap="round"/>
<path d="M21.5 12H10.5M21.5 12C21.5 11.2998 19.5057 9.99153 19 9.5M21.5 12C21.5 12.7002 19.5057 14.0085 19 14.5" stroke="#141B34" stroke-width="1.5" stroke-linecap="round" stroke-linejoin="round"/>
</svg>
